<?xml version="1.0" encoding="utf-8"?>
<!-- Generator: Adobe Illustrator 23.0.3, SVG Export Plug-In . SVG Version: 6.00 Build 0)  -->
<svg version="1.1" id="Layer_1" xmlns="http://www.w3.org/2000/svg" xmlns:xlink="http://www.w3.org/1999/xlink" x="0px" y="0px"
	 viewBox="0 0 72 72" style="enable-background:new 0 0 72 72;" xml:space="preserve">
<style type="text/css">
	.st0{fill:#E5E5E5;}
	.st1{clip-path:url(#SVGID_2_);}
	.st2{fill:#FFFFFF;}
	.st3{fill-rule:evenodd;clip-rule:evenodd;stroke:#000000;stroke-width:2;stroke-miterlimit:10;}
</style>
<rect class="st0" width="72" height="72"/>
<g>
	<defs>
		<rect id="SVGID_1_" width="72" height="72"/>
	</defs>
	<clipPath id="SVGID_2_">
		<use xlink:href="#SVGID_1_"  style="overflow:visible;"/>
	</clipPath>
	<g class="st1">
		<rect class="st2" width="72" height="72"/>
		<path class="st3" d="M67.2,8.3c0.2,10.4,0.1,32.1-0.1,50.8c0,5.5-6.4,8.4-10.6,5l-3.9-3.2c7.8-8,9.5-20.4-2.7-30.3L24.8,10.1
			c4.2-3.2,9.6-5.3,15.5-5.3h23.2c1.3,0,2.2,0.4,2.7,0.9C66.8,6.2,67.2,7.1,67.2,8.3z M22.7,12l25.5,20.7c4.5,3.7,6.7,7.5,7.5,11.2
			c0.8,3.6,0.1,7.3-1.7,10.6c-0.9,1.7-2.1,3.2-3.5,4.6L24.9,38.4c-4.5-3.7-6.7-7.5-7.5-11.2c-0.8-3.6-0.1-7.3,1.7-10.6
			C20.1,15,21.3,13.4,22.7,12z M20.5,10.2c-7.8,8-9.5,20.4,2.7,30.3L48.3,61c-4.2,3.2-9.6,5.3-15.5,5.3H9.6c-1.3,0-2.2-0.4-2.7-0.9
			c-0.5-0.5-1-1.3-1-2.5C5.7,52.4,5.8,30.8,6,12c0-5.5,6.4-8.4,10.6-5L20.5,10.2z M22.6,8.3l-4.2-3.5C12.3-0.1,3.2,4.2,3.2,12
			C3,30.7,2.9,52.4,3.1,62.9c0.1,3.8,2.7,6.2,6.5,6.2h23.2c6.7,0,13-2.5,17.7-6.3l4.2,3.5c6.1,4.9,15.1,0.7,15.2-7.1
			c0.2-18.7,0.3-40.4,0.1-50.9C70,4.4,67.3,2,63.5,2H40.3C33.6,2,27.3,4.5,22.6,8.3z"/>
	</g>
</g>
</svg>
