<svg width="72" height="72" viewBox="0 0 72 72" fill="none" xmlns="http://www.w3.org/2000/svg">
<path fill-rule="evenodd" clip-rule="evenodd" d="M68.9111 6.71812C69.087 17.8918 68.9746 41.156 68.8102 61.2492C68.7623 67.0992 61.9755 70.2951 57.4277 66.5963L53.2117 63.1675C61.6306 54.5512 63.3804 41.2323 50.3607 30.6435L23.4047 8.72011C27.8569 5.23614 33.733 3 40.0505 3H64.9056C66.2866 3 67.2512 3.43625 67.8526 4.00091C68.4392 4.55163 68.8907 5.41888 68.9111 6.71812ZM21.127 10.7346L48.4678 32.9709C53.2914 36.8939 55.6974 41.0459 56.5059 44.9355C57.3156 48.8311 56.5819 52.7427 54.6341 56.2975C53.6597 58.0758 52.3868 59.751 50.873 61.2654L23.5322 39.0291C18.7086 35.1061 16.3026 30.9541 15.4941 27.0645C14.6844 23.1689 15.4181 19.2573 17.3659 15.7025C18.3403 13.9242 19.6132 12.249 21.127 10.7346ZM18.7883 8.83249C10.3694 17.4488 8.61964 30.7677 21.6393 41.3565L48.5953 63.2799C44.1431 66.7639 38.267 69 31.9495 69H7.09442C5.71344 69 4.7488 68.5638 4.1474 67.9991C3.56083 67.4484 3.1093 66.5811 3.08886 65.2819C2.91304 54.1082 3.02537 30.844 3.18981 10.7508C3.23768 4.9008 10.0245 1.70485 14.5723 5.40366L18.7883 8.83249ZM21.0237 6.78361L16.4652 3.07623C9.97056 -2.2059 0.258414 2.35501 0.189907 10.7262C0.0255457 30.8102 -0.0872681 54.1125 0.089231 65.3291C0.153081 69.3868 3.03623 72 7.09442 72H31.9495C39.1771 72 45.9281 69.3638 50.9763 65.2164L55.5348 68.9238C62.0294 74.2059 71.7416 69.645 71.8101 61.2738C71.9745 41.1898 72.0873 17.8875 71.9108 6.67091C71.8469 2.61322 68.9638 0 64.9056 0H40.0505C32.8229 0 26.0719 2.6362 21.0237 6.78361Z" fill="white"/>
</svg>
