<svg id="Layer_1" data-name="Layer 1" xmlns="http://www.w3.org/2000/svg" viewBox="0 0 858.46 663.6"><defs><style>.cls-1{fill:#fff;}.cls-2{font-size:18px;font-family:MyriadPro-Regular, Myriad Pro;}.cls-2,.cls-28{fill:#231f20;}.cls-3{letter-spacing:0em;}.cls-4{letter-spacing:-0.01em;}.cls-5{letter-spacing:-0.01em;}.cls-6{letter-spacing:0em;}.cls-7{letter-spacing:-0.01em;}.cls-8{letter-spacing:0em;}.cls-9{letter-spacing:0em;}.cls-10{letter-spacing:0.01em;}.cls-11{letter-spacing:-0.01em;}.cls-12{letter-spacing:-0.02em;}.cls-13{letter-spacing:-0.01em;}.cls-14{letter-spacing:-0.01em;}.cls-15{letter-spacing:0em;}.cls-16{letter-spacing:0em;}.cls-17{letter-spacing:0em;}.cls-18{letter-spacing:0em;}.cls-19{letter-spacing:-0.01em;}.cls-20{letter-spacing:-0.01em;}.cls-21{letter-spacing:-0.04em;}.cls-22{letter-spacing:-0.01em;}.cls-23{fill:none;stroke:#fff;stroke-width:2px;}.cls-24{letter-spacing:-0.01em;}.cls-25{letter-spacing:-0.01em;}.cls-26{letter-spacing:-0.03em;}.cls-27{letter-spacing:-0.02em;}.cls-29{letter-spacing:-0.02em;}.cls-30{letter-spacing:-0.01em;}.cls-31{letter-spacing:0em;}.cls-32{letter-spacing:-0.03em;}.cls-33{letter-spacing:-0.04em;}</style></defs><title>IANOBG</title><rect class="cls-1" x="270.47" y="171" width="179.53" height="36"/><text class="cls-2" transform="translate(270.47 195.75)"><tspan xml:space="preserve">         </tspan><tspan class="cls-3" x="34.34" y="0">S</tspan><tspan x="43.31" y="0">chedule </tspan><tspan class="cls-3" x="107.53" y="0">S</tspan><tspan x="116.49" y="0">c</tspan><tspan class="cls-4" x="124.56" y="0">r</tspan><tspan x="130.28" y="0">een</tspan></text><rect class="cls-1" x="354.5" y="113" width="131" height="32"/><text class="cls-2" transform="translate(354.5 135.75)">Onboa<tspan class="cls-5" x="51.19" y="0">r</tspan><tspan class="cls-6" x="56.92" y="0">ding</tspan></text><rect class="cls-1" x="539.97" y="171" width="178.07" height="36"/><text class="cls-2" transform="translate(539.97 195.75)"><tspan xml:space="preserve">        </tspan><tspan class="cls-7" x="30.53" y="0">E</tspan><tspan class="cls-5" x="39.26" y="0">v</tspan><tspan x="47.75" y="0">e</tspan><tspan class="cls-8" x="56.77" y="0">n</tspan><tspan class="cls-9" x="66.71" y="0">ts </tspan><tspan class="cls-10" x="83.61" y="0">S</tspan><tspan x="92.59" y="0">c</tspan><tspan class="cls-4" x="100.65" y="0">r</tspan><tspan class="cls-9" x="106.38" y="0">een</tspan></text><rect class="cls-1" x="270" width="180" height="36"/><text class="cls-2" transform="translate(270 24.75)"><tspan xml:space="preserve">          Splash </tspan><tspan class="cls-3" x="91.13" y="0">S</tspan><tspan x="100.1" y="0">c</tspan><tspan class="cls-4" x="108.16" y="0">r</tspan><tspan class="cls-9" x="113.88" y="0">een</tspan></text><rect class="cls-1" y="170.6" width="179.53" height="36"/><text class="cls-2" transform="translate(0 195.35)"><tspan xml:space="preserve">           </tspan><tspan class="cls-3" x="41.97" y="0">M</tspan><tspan x="56.54" y="0">enu Bar</tspan></text><rect class="cls-1" x="355" y="63" width="131" height="32"/><text class="cls-2" transform="translate(355 85.75)">Si<tspan class="cls-11" x="13.09" y="0">g</tspan><tspan x="23.06" y="0">n-in</tspan></text><text class="cls-2" transform="translate(363.73 259.74)"><tspan class="cls-12">V</tspan><tspan x="9.77" y="0">iew agenda</tspan></text><text class="cls-2" transform="translate(364.38 296.22)"><tspan class="cls-12">V</tspan><tspan x="9.77" y="0">iew noti</tspan><tspan class="cls-13" x="70.11" y="0">c</tspan><tspan x="78.06" y="0">es</tspan></text><text class="cls-2" transform="translate(363.01 331.85)"><tspan class="cls-10">S</tspan><tspan x="8.98" y="0">ea</tspan><tspan class="cls-5" x="26.68" y="0">r</tspan><tspan x="32.4" y="0">ch </tspan><tspan class="cls-14" x="54.27" y="0">A</tspan><tspan class="cls-9" x="65.07" y="0">genda</tspan></text><text class="cls-2" transform="translate(614.29 407.59)"><tspan class="cls-12">V</tspan><tspan x="9.77" y="0">iew noti</tspan><tspan class="cls-15" x="70.11" y="0">c</tspan><tspan class="cls-9" x="78.08" y="0">es</tspan></text><text class="cls-2" transform="translate(614.29 442.58)"><tspan class="cls-16">C</tspan><tspan class="cls-5" x="10.4" y="0">r</tspan><tspan x="16.13" y="0">e</tspan><tspan class="cls-17" x="25.15" y="0">a</tspan><tspan class="cls-11" x="33.75" y="0">t</tspan><tspan x="39.62" y="0">e a New </tspan><tspan class="cls-7" x="102.87" y="0">E</tspan><tspan class="cls-4" x="111.6" y="0">v</tspan><tspan class="cls-9" x="120.09" y="0">e</tspan><tspan class="cls-8" x="129.11" y="0">n</tspan><tspan x="139.05" y="0">t (</tspan><tspan class="cls-18" x="153.93" y="0">r</tspan><tspan x="159.87" y="0">ig</tspan><tspan class="cls-17" x="174.15" y="0">h</tspan><tspan x="184.06" y="0">t based)</tspan></text><text class="cls-2" transform="translate(614.29 478.58)">Change <tspan class="cls-13" x="61.99" y="0">t</tspan><tspan x="67.84" y="0">o List view</tspan></text><text class="cls-2" transform="translate(613.28 369.09)"><tspan class="cls-10">S</tspan><tspan x="8.98" y="0">ea</tspan><tspan class="cls-5" x="26.68" y="0">r</tspan><tspan x="32.4" y="0">ch e</tspan><tspan class="cls-19" x="63.29" y="0">v</tspan><tspan class="cls-9" x="71.77" y="0">e</tspan><tspan class="cls-17" x="80.78" y="0">n</tspan><tspan x="90.7" y="0">ts</tspan></text><text class="cls-2" transform="translate(614.07 256.59)"><tspan class="cls-10">M</tspan><tspan class="cls-20" x="14.58" y="0">o</tspan><tspan class="cls-4" x="24.34" y="0">v</tspan><tspan class="cls-9" x="32.83" y="0">e an e</tspan><tspan class="cls-19" x="77.16" y="0">v</tspan><tspan class="cls-9" x="85.64" y="0">e</tspan><tspan class="cls-8" x="94.66" y="0">n</tspan><tspan class="cls-9" x="104.6" y="0">t </tspan><tspan class="cls-13" x="114.37" y="0">t</tspan><tspan x="120.22" y="0">o schedule</tspan></text><text class="cls-2" transform="translate(614.29 295.59)"><tspan class="cls-21">F</tspan><tspan class="cls-20" x="7.97" y="0">a</tspan><tspan class="cls-5" x="16.52" y="0">v</tspan><tspan x="25.02" y="0">o</tspan><tspan class="cls-18" x="34.9" y="0">r</tspan><tspan x="40.84" y="0">i</tspan><tspan class="cls-13" x="45.05" y="0">t</tspan><tspan x="50.9" y="0">e an e</tspan><tspan class="cls-19" x="95.24" y="0">v</tspan><tspan class="cls-9" x="103.71" y="0">e</tspan><tspan class="cls-17" x="112.73" y="0">n</tspan><tspan x="122.65" y="0">t</tspan></text><text class="cls-2" transform="translate(615.08 332.6)"><tspan class="cls-22">A</tspan><tspan class="cls-6" x="10.8" y="0">dd </tspan><tspan class="cls-4" x="34.92" y="0">r</tspan><tspan x="40.64" y="0">eminder </tspan><tspan class="cls-14" x="107.75" y="0">f</tspan><tspan x="112.79" y="0">or an e</tspan><tspan class="cls-19" x="163.87" y="0">v</tspan><tspan class="cls-9" x="172.35" y="0">e</tspan><tspan class="cls-17" x="181.37" y="0">n</tspan><tspan x="191.28" y="0">t</tspan></text><text class="cls-2" transform="translate(361.28 403.59)"><tspan class="cls-22">A</tspan><tspan class="cls-6" x="10.8" y="0">dd </tspan><tspan class="cls-4" x="34.92" y="0">r</tspan><tspan x="40.64" y="0">eminder </tspan><tspan class="cls-14" x="107.75" y="0">f</tspan><tspan x="112.79" y="0">or a task</tspan></text><line class="cls-23" x1="345" y1="36" x2="345" y2="171"/><line class="cls-23" x1="180" y1="188" x2="270" y2="188"/><line class="cls-23" x1="450" y1="189" x2="540" y2="189"/><line class="cls-23" x1="413" y1="144" x2="413" y2="171"/><line class="cls-23" x1="414" y1="95" x2="414" y2="113"/><line class="cls-23" x1="346" y1="80" x2="354" y2="80"/><line class="cls-23" x1="341.8" y1="205" x2="341.8" y2="436.1"/><line class="cls-23" x1="593" y1="206" x2="593" y2="476.1"/><line class="cls-23" x1="604" y1="253.11" x2="592" y2="253.11"/><line class="cls-23" x1="604.6" y1="290.11" x2="592.6" y2="290.11"/><line class="cls-23" x1="605.6" y1="327.11" x2="593.6" y2="327.11"/><line class="cls-23" x1="604.6" y1="364.1" x2="592.6" y2="364.1"/><line class="cls-23" x1="605.3" y1="401.1" x2="593.3" y2="401.1"/><line class="cls-23" x1="606.3" y1="438.1" x2="594.3" y2="438.1"/><line class="cls-23" x1="605.3" y1="475.1" x2="593.3" y2="475.1"/><line class="cls-23" x1="353.77" y1="253.53" x2="341.42" y2="253.53"/><line class="cls-23" x1="354.8" y1="289.88" x2="342.45" y2="289.88"/><line class="cls-23" x1="353.6" y1="327.2" x2="341.6" y2="327.2"/><line class="cls-23" x1="70" y1="207" x2="70" y2="494.1"/><line class="cls-23" x1="81.97" y1="253.53" x2="69.62" y2="253.53"/><line class="cls-23" x1="82" y1="289.1" x2="69.64" y2="289.1"/><line class="cls-23" x1="83.65" y1="326.1" x2="71.3" y2="326.1"/><text class="cls-2" transform="translate(359.3 441.6)"><tspan class="cls-22">A</tspan><tspan class="cls-6" x="10.8" y="0">dd a new task </tspan><tspan class="cls-24" x="117.5" y="0">t</tspan><tspan x="123.35" y="0">o schedule</tspan></text><text class="cls-2" transform="translate(362.3 367.61)"><tspan class="cls-10">S</tspan><tspan x="8.98" y="0">c</tspan><tspan class="cls-4" x="17.05" y="0">r</tspan><tspan x="22.77" y="0">oll other d</tspan><tspan class="cls-25" x="99.66" y="0">a</tspan><tspan class="cls-13" x="108.2" y="0">y</tspan><tspan x="116.57" y="0">s</tspan></text><rect class="cls-1" x="92.3" y="473.1" width="99" height="36"/><text class="cls-2" transform="translate(92.3 497.85)"><tspan xml:space="preserve">     </tspan><tspan class="cls-3" x="19.08" y="0">S</tspan><tspan x="28.04" y="0">ettings</tspan></text><rect class="cls-1" x="92.8" y="309.1" width="95" height="36"/><text class="cls-2" transform="translate(92.8 333.85)"><tspan xml:space="preserve">    </tspan><tspan class="cls-26" x="15.26" y="0"> </tspan><tspan class="cls-27" x="18.45" y="0">V</tspan><tspan x="28.21" y="0">ie</tspan><tspan class="cls-24" x="41.44" y="0">w</tspan><tspan x="54.57" y="0">s</tspan></text><path class="cls-28" d="M130.58,268.43a19,19,0,0,1,3-.23,5,5,0,0,1,3.4,1,3.25,3.25,0,0,1,1.07,2.54,3.59,3.59,0,0,1-.94,2.59,5,5,0,0,1-3.71,1.33,5.37,5.37,0,0,1-1.26-.11v4.86h-1.57Zm1.57,5.85a5.26,5.26,0,0,0,1.3.13c1.89,0,3-.92,3-2.59s-1.13-2.38-2.86-2.38a6.07,6.07,0,0,0-1.48.13Zm7.67.15c0-1,0-1.91-.07-2.72h1.38l.06,1.71h.07a2.61,2.61,0,0,1,2.41-1.91,1.53,1.53,0,0,1,.45.06v1.49a2.16,2.16,0,0,0-.54-.05,2.21,2.21,0,0,0-2.12,2,4.09,4.09,0,0,0-.08.74v4.64h-1.56ZM153.41,276a4.26,4.26,0,0,1-4.34,4.63,4.14,4.14,0,0,1-4.18-4.48c0-2.92,1.91-4.63,4.33-4.63S153.41,273.33,153.41,276Zm-6.91.09c0,1.91,1.09,3.35,2.64,3.35s2.65-1.42,2.65-3.38c0-1.48-.74-3.35-2.61-3.35S146.5,274.43,146.5,276.08Zm9.07,4.34v-7.5h-1.23v-1.21h1.23v-.47a3.5,3.5,0,0,1,3.8-3.8,4.28,4.28,0,0,1,2.21.58l-.45,1.2a3.32,3.32,0,0,0-1.83-.5c-1.68,0-2.17,1.17-2.17,2.56v.43h5.06v8.71h-1.56v-7.5h-3.5v7.5Zm9.25-12.78h1.58v12.78h-1.58Zm5.13,8.71a2.79,2.79,0,0,0,3,3,5.75,5.75,0,0,0,2.41-.45l.27,1.13a6.93,6.93,0,0,1-2.9.54,4,4,0,0,1-4.28-4.39c0-2.63,1.55-4.7,4.09-4.7,2.84,0,3.6,2.5,3.6,4.11a5.28,5.28,0,0,1-.06.73Zm4.65-1.13a2.26,2.26,0,0,0-2.2-2.57,2.62,2.62,0,0,0-2.43,2.57Z" transform="translate(-38 -21.4)"/><text class="cls-2" transform="translate(91.29 294.11)"><tspan class="cls-29">P</tspan><tspan class="cls-9" x="9.14" y="0">e</tspan><tspan class="cls-18" x="18.16" y="0">r</tspan><tspan x="24.1" y="0">mission </tspan><tspan class="cls-13" x="85.48" y="0">t</tspan><tspan x="91.33" y="0">o </tspan><tspan class="cls-16" x="105.03" y="0">C</tspan><tspan class="cls-30" x="115.43" y="0">r</tspan><tspan x="121.14" y="0">e</tspan><tspan class="cls-31" x="130.16" y="0">a</tspan><tspan class="cls-13" x="138.78" y="0">t</tspan><tspan x="144.63" y="0">e </tspan><tspan class="cls-13" x="157.46" y="0">E</tspan><tspan class="cls-5" x="166.21" y="0">v</tspan><tspan x="174.71" y="0">e</tspan><tspan class="cls-31" x="183.72" y="0">n</tspan><tspan x="193.66" y="0">t</tspan></text><line class="cls-23" x1="130.3" y1="509.13" x2="130.3" y2="655.13"/><line class="cls-23" x1="129.3" y1="338.1" x2="129.3" y2="449.1"/><line class="cls-23" x1="142.3" y1="546.13" x2="129.95" y2="546.13"/><line class="cls-23" x1="142.3" y1="375.1" x2="129.94" y2="375.1"/><line class="cls-23" x1="142.3" y1="582.13" x2="129.95" y2="582.13"/><line class="cls-23" x1="142.3" y1="411.1" x2="129.94" y2="411.1"/><line class="cls-23" x1="142.3" y1="654.1" x2="130.3" y2="654.1"/><text class="cls-2" transform="translate(151.07 550.85)"><tspan class="cls-10">M</tspan><tspan class="cls-6" x="14.58" y="0">anage noti</tspan><tspan class="cls-13" x="94.86" y="0">c</tspan><tspan x="102.81" y="0">es</tspan></text><text class="cls-2" transform="translate(149.29 381.6)">D<tspan class="cls-20" x="11.99" y="0">a</tspan><tspan x="20.54" y="0">y </tspan></text><text class="cls-2" transform="translate(151.29 587.88)"><tspan class="cls-10">M</tspan><tspan class="cls-6" x="14.58" y="0">anage f</tspan><tspan class="cls-25" x="70.07" y="0">a</tspan><tspan class="cls-4" x="78.6" y="0">v</tspan><tspan x="87.1" y="0">o</tspan><tspan class="cls-18" x="96.98" y="0">r</tspan><tspan x="102.92" y="0">i</tspan><tspan class="cls-24" x="107.13" y="0">t</tspan><tspan x="112.98" y="0">es</tspan></text><text class="cls-2" transform="translate(148.28 416.59)"><tspan class="cls-32">W</tspan><tspan x="14.65" y="0">eek</tspan></text><text class="cls-2" transform="translate(150.3 624.84)"><tspan class="cls-30">C</tspan><tspan x="10.26" y="0">olor scheme</tspan></text><text class="cls-2" transform="translate(149.27 453.58)"><tspan class="cls-10">M</tspan><tspan x="14.58" y="0">o</tspan><tspan class="cls-17" x="24.46" y="0">n</tspan><tspan x="34.38" y="0">th</tspan></text><line class="cls-23" x1="354" y1="361" x2="342" y2="361"/><line class="cls-23" x1="354" y1="398.1" x2="342" y2="398.1"/><line class="cls-23" x1="354.3" y1="435.1" x2="342.3" y2="435.1"/><text class="cls-2" transform="translate(151.3 659.1)">D<tspan class="cls-8" x="11.99" y="0">a</tspan><tspan class="cls-24" x="20.61" y="0">t</tspan><tspan x="26.46" y="0">e</tspan><tspan class="cls-33" x="35.48" y="0"> </tspan><tspan class="cls-14" x="38.57" y="0">T</tspan><tspan x="47.3" y="0">ime</tspan></text><line class="cls-23" x1="142.3" y1="619.13" x2="130.3" y2="619.13"/><line class="cls-23" x1="142.3" y1="448.1" x2="130.3" y2="448.1"/><line class="cls-23" x1="81.3" y1="493.1" x2="69.3" y2="493.1"/><text x="-38" y="-21.4"/></svg>