<svg id="Layer_1" data-name="Layer 1" xmlns="http://www.w3.org/2000/svg" viewBox="0 0 927 713"><defs><style>.cls-1{fill:#e5e4e1;}.cls-2{font-size:18px;font-family:MyriadPro-Regular, Myriad Pro;}.cls-2,.cls-28{fill:#808285;}.cls-3{letter-spacing:0.01em;}.cls-4{letter-spacing:0em;}.cls-5{letter-spacing:-0.01em;}.cls-6{letter-spacing:0em;}.cls-7{letter-spacing:-0.01em;}.cls-8{letter-spacing:0em;}.cls-9{letter-spacing:-0.01em;}.cls-10{letter-spacing:0em;}.cls-11{letter-spacing:-0.01em;}.cls-12{letter-spacing:-0.02em;}.cls-13{letter-spacing:-0.01em;}.cls-14{letter-spacing:0em;}.cls-15{letter-spacing:0em;}.cls-16{letter-spacing:-0.01em;}.cls-17{letter-spacing:0em;}.cls-18{letter-spacing:0em;}.cls-19{letter-spacing:-0.01em;}.cls-20{letter-spacing:-0.01em;}.cls-21{letter-spacing:-0.04em;}.cls-22{letter-spacing:-0.01em;}.cls-23,.cls-24{fill:none;stroke-width:2px;}.cls-23{stroke:#dfdedc;}.cls-24{stroke:#e5e4e1;}.cls-25{letter-spacing:-0.01em;}.cls-26{letter-spacing:-0.01em;}.cls-27{letter-spacing:-0.02em;}.cls-29{letter-spacing:-0.02em;}.cls-30{letter-spacing:-0.01em;}.cls-31{letter-spacing:0em;}.cls-32{letter-spacing:-0.03em;}.cls-33{letter-spacing:-0.04em;}</style></defs><title>IA</title><rect class="cls-1" x="315.47" y="206.39" width="179.53" height="36"/><text class="cls-2" transform="translate(315.47 231.15)"><tspan class="cls-3">S</tspan><tspan x="8.98" y="0">chedule </tspan><tspan class="cls-4" x="73.21" y="0">S</tspan><tspan x="82.17" y="0">c</tspan><tspan class="cls-5" x="90.23" y="0">r</tspan><tspan class="cls-6" x="95.96" y="0">een</tspan></text><rect class="cls-1" x="399.5" y="148.4" width="131" height="32"/><text class="cls-2" transform="translate(399.5 171.15)">Onboa<tspan class="cls-7" x="51.19" y="0">r</tspan><tspan class="cls-8" x="56.92" y="0">ding</tspan></text><rect class="cls-1" x="584.97" y="206.39" width="178.07" height="36"/><text class="cls-2" transform="translate(584.97 231.15)"><tspan class="cls-9">E</tspan><tspan class="cls-7" x="8.75" y="0">v</tspan><tspan class="cls-6" x="17.24" y="0">e</tspan><tspan class="cls-10" x="26.26" y="0">n</tspan><tspan x="36.18" y="0">ts </tspan><tspan class="cls-4" x="53.08" y="0">S</tspan><tspan x="62.04" y="0">c</tspan><tspan class="cls-7" x="70.11" y="0">r</tspan><tspan x="75.83" y="0">een</tspan></text><rect class="cls-1" x="315" y="35.4" width="180" height="36"/><text class="cls-2" transform="translate(315 60.15)">Splash <tspan class="cls-4" x="52.97" y="0">S</tspan><tspan x="61.94" y="0">c</tspan><tspan class="cls-5" x="70" y="0">r</tspan><tspan class="cls-6" x="75.73" y="0">een</tspan></text><rect class="cls-1" x="45" y="205.99" width="179.53" height="36"/><text class="cls-2" transform="translate(45 230.74)"><tspan class="cls-3">M</tspan><tspan x="14.58" y="0">enu Bar</tspan></text><rect class="cls-1" x="400" y="98.4" width="131" height="32"/><text class="cls-2" transform="translate(400 121.15)">Si<tspan class="cls-11" x="13.09" y="0">g</tspan><tspan x="23.06" y="0">n-in</tspan></text><text class="cls-2" transform="translate(408.73 295.13)"><tspan class="cls-12">V</tspan><tspan x="9.77" y="0">iew agenda</tspan></text><text class="cls-2" transform="translate(409.38 331.62)"><tspan class="cls-12">V</tspan><tspan x="9.77" y="0">iew noti</tspan><tspan class="cls-9" x="70.11" y="0">c</tspan><tspan x="78.06" y="0">es</tspan></text><text class="cls-2" transform="translate(408.01 367.24)"><tspan class="cls-3">S</tspan><tspan x="8.98" y="0">ea</tspan><tspan class="cls-7" x="26.68" y="0">r</tspan><tspan x="32.4" y="0">ch </tspan><tspan class="cls-13" x="54.27" y="0">A</tspan><tspan class="cls-6" x="65.07" y="0">genda</tspan></text><text class="cls-2" transform="translate(659.29 442.99)"><tspan class="cls-12">V</tspan><tspan x="9.77" y="0">iew noti</tspan><tspan class="cls-14" x="70.11" y="0">c</tspan><tspan class="cls-6" x="78.08" y="0">es</tspan></text><text class="cls-2" transform="translate(659.29 477.98)"><tspan class="cls-15">C</tspan><tspan class="cls-7" x="10.4" y="0">r</tspan><tspan x="16.13" y="0">e</tspan><tspan class="cls-10" x="25.15" y="0">a</tspan><tspan class="cls-11" x="33.75" y="0">t</tspan><tspan x="39.62" y="0">e a New </tspan><tspan class="cls-16" x="102.87" y="0">E</tspan><tspan class="cls-5" x="111.6" y="0">v</tspan><tspan class="cls-6" x="120.09" y="0">e</tspan><tspan class="cls-17" x="129.11" y="0">n</tspan><tspan x="139.05" y="0">t (</tspan><tspan class="cls-18" x="153.93" y="0">r</tspan><tspan x="159.87" y="0">ig</tspan><tspan class="cls-10" x="174.15" y="0">h</tspan><tspan x="184.06" y="0">t based)</tspan></text><text class="cls-2" transform="translate(659.29 513.98)">Change <tspan class="cls-9" x="61.99" y="0">t</tspan><tspan x="67.84" y="0">o List view</tspan></text><text class="cls-2" transform="translate(658.28 404.48)"><tspan class="cls-3">S</tspan><tspan x="8.98" y="0">ea</tspan><tspan class="cls-7" x="26.68" y="0">r</tspan><tspan x="32.4" y="0">ch e</tspan><tspan class="cls-19" x="63.29" y="0">v</tspan><tspan class="cls-6" x="71.77" y="0">e</tspan><tspan class="cls-10" x="80.78" y="0">n</tspan><tspan x="90.7" y="0">ts</tspan></text><text class="cls-2" transform="translate(659.07 291.98)"><tspan class="cls-3">M</tspan><tspan class="cls-20" x="14.58" y="0">o</tspan><tspan class="cls-5" x="24.34" y="0">v</tspan><tspan class="cls-6" x="32.83" y="0">e an e</tspan><tspan class="cls-19" x="77.16" y="0">v</tspan><tspan class="cls-6" x="85.64" y="0">e</tspan><tspan class="cls-17" x="94.66" y="0">n</tspan><tspan class="cls-6" x="104.6" y="0">t </tspan><tspan class="cls-9" x="114.37" y="0">t</tspan><tspan x="120.22" y="0">o schedule</tspan></text><text class="cls-2" transform="translate(659.29 330.99)"><tspan class="cls-21">F</tspan><tspan class="cls-20" x="7.97" y="0">a</tspan><tspan class="cls-7" x="16.52" y="0">v</tspan><tspan x="25.02" y="0">o</tspan><tspan class="cls-18" x="34.9" y="0">r</tspan><tspan x="40.84" y="0">i</tspan><tspan class="cls-9" x="45.05" y="0">t</tspan><tspan x="50.9" y="0">e an e</tspan><tspan class="cls-19" x="95.24" y="0">v</tspan><tspan class="cls-6" x="103.71" y="0">e</tspan><tspan class="cls-10" x="112.73" y="0">n</tspan><tspan x="122.65" y="0">t</tspan></text><text class="cls-2" transform="translate(660.08 368)"><tspan class="cls-22">A</tspan><tspan class="cls-8" x="10.8" y="0">dd </tspan><tspan class="cls-5" x="34.92" y="0">r</tspan><tspan x="40.64" y="0">eminder </tspan><tspan class="cls-13" x="107.75" y="0">f</tspan><tspan x="112.79" y="0">or an e</tspan><tspan class="cls-19" x="163.87" y="0">v</tspan><tspan class="cls-6" x="172.35" y="0">e</tspan><tspan class="cls-10" x="181.37" y="0">n</tspan><tspan x="191.28" y="0">t</tspan></text><text class="cls-2" transform="translate(406.28 438.99)"><tspan class="cls-22">A</tspan><tspan class="cls-8" x="10.8" y="0">dd </tspan><tspan class="cls-5" x="34.92" y="0">r</tspan><tspan x="40.64" y="0">eminder </tspan><tspan class="cls-13" x="107.75" y="0">f</tspan><tspan x="112.79" y="0">or a task</tspan></text><line class="cls-23" x1="390" y1="71.4" x2="390" y2="206.4"/><line class="cls-23" x1="225" y1="223.4" x2="315" y2="223.4"/><line class="cls-23" x1="495" y1="224.4" x2="585" y2="224.4"/><line class="cls-23" x1="458" y1="179.4" x2="458" y2="206.4"/><line class="cls-23" x1="459" y1="130.4" x2="459" y2="148.4"/><line class="cls-23" x1="391" y1="115.4" x2="399" y2="115.4"/><line class="cls-24" x1="386.8" y1="240.39" x2="386.8" y2="471.5"/><line class="cls-24" x1="638" y1="241.39" x2="638" y2="511.5"/><line class="cls-23" x1="649" y1="288.5" x2="637" y2="288.5"/><line class="cls-23" x1="649.6" y1="325.5" x2="637.6" y2="325.5"/><line class="cls-23" x1="650.6" y1="362.5" x2="638.6" y2="362.5"/><line class="cls-23" x1="649.6" y1="399.5" x2="637.6" y2="399.5"/><line class="cls-23" x1="650.3" y1="436.5" x2="638.3" y2="436.5"/><line class="cls-23" x1="651.3" y1="473.5" x2="639.3" y2="473.5"/><line class="cls-23" x1="650.3" y1="510.5" x2="638.3" y2="510.5"/><line class="cls-23" x1="398.77" y1="288.92" x2="386.42" y2="288.92"/><line class="cls-23" x1="399.8" y1="325.28" x2="387.45" y2="325.28"/><line class="cls-23" x1="398.6" y1="362.6" x2="386.6" y2="362.6"/><line class="cls-24" x1="115" y1="242.39" x2="115" y2="529.5"/><line class="cls-23" x1="126.97" y1="288.92" x2="114.62" y2="288.92"/><line class="cls-23" x1="127" y1="324.5" x2="114.64" y2="324.5"/><line class="cls-23" x1="128.65" y1="361.5" x2="116.3" y2="361.5"/><text class="cls-2" transform="translate(404.3 477)"><tspan class="cls-22">A</tspan><tspan class="cls-8" x="10.8" y="0">dd a new task </tspan><tspan class="cls-25" x="117.5" y="0">t</tspan><tspan x="123.35" y="0">o schedule</tspan></text><text class="cls-2" transform="translate(407.3 403)"><tspan class="cls-3">S</tspan><tspan x="8.98" y="0">c</tspan><tspan class="cls-5" x="17.05" y="0">r</tspan><tspan x="22.77" y="0">oll other d</tspan><tspan class="cls-26" x="99.66" y="0">a</tspan><tspan class="cls-9" x="108.2" y="0">y</tspan><tspan x="116.57" y="0">s</tspan></text><rect class="cls-1" x="137.3" y="508.5" width="99" height="36"/><text class="cls-2" transform="translate(137.3 533.25)"><tspan class="cls-3">S</tspan><tspan x="8.98" y="0">ettings</tspan></text><rect class="cls-1" x="137.8" y="344.5" width="95" height="36"/><text class="cls-2" transform="translate(137.8 369.25)"><tspan class="cls-27">V</tspan><tspan x="9.76" y="0">ie</tspan><tspan class="cls-11" x="22.99" y="0">w</tspan><tspan x="36.14" y="0">s</tspan></text><path class="cls-28" d="M137.58,282.43a19,19,0,0,1,3-.23,5,5,0,0,1,3.4,1,3.25,3.25,0,0,1,1.07,2.54,3.59,3.59,0,0,1-.94,2.59,5,5,0,0,1-3.71,1.33,5.37,5.37,0,0,1-1.26-.11v4.86h-1.57Zm1.57,5.85a5.26,5.26,0,0,0,1.3.13c1.89,0,3-.92,3-2.59s-1.13-2.38-2.86-2.38a6.07,6.07,0,0,0-1.48.13Zm7.67.15c0-1,0-1.91-.07-2.72h1.38l.06,1.71h.07a2.61,2.61,0,0,1,2.41-1.91,1.53,1.53,0,0,1,.45.06v1.49a2.16,2.16,0,0,0-.54-.05,2.21,2.21,0,0,0-2.12,2,4.09,4.09,0,0,0-.08.74v4.64h-1.56ZM160.41,290a4.26,4.26,0,0,1-4.34,4.63,4.14,4.14,0,0,1-4.18-4.48c0-2.92,1.91-4.63,4.33-4.63S160.41,287.33,160.41,290Zm-6.91.09c0,1.91,1.09,3.35,2.64,3.35s2.65-1.42,2.65-3.38c0-1.48-.74-3.35-2.61-3.35S153.5,288.43,153.5,290.08Zm9.07,4.34v-7.5h-1.23v-1.21h1.23v-.47a3.5,3.5,0,0,1,3.8-3.8,4.28,4.28,0,0,1,2.21.58l-.45,1.2a3.32,3.32,0,0,0-1.83-.5c-1.68,0-2.17,1.17-2.17,2.56v.43h5.06v8.71h-1.56v-7.5h-3.5v7.5Zm9.25-12.78h1.58v12.78h-1.58Zm5.13,8.71a2.79,2.79,0,0,0,3,3,5.75,5.75,0,0,0,2.41-.45l.27,1.13a6.93,6.93,0,0,1-2.9.54,4,4,0,0,1-4.28-4.39c0-2.63,1.55-4.7,4.09-4.7,2.84,0,3.6,2.5,3.6,4.11a5.28,5.28,0,0,1-.06.73Zm4.65-1.13a2.26,2.26,0,0,0-2.2-2.57,2.62,2.62,0,0,0-2.43,2.57Z"/><text class="cls-2" transform="translate(136.29 329.51)"><tspan class="cls-29">P</tspan><tspan class="cls-6" x="9.14" y="0">e</tspan><tspan class="cls-18" x="18.16" y="0">r</tspan><tspan x="24.1" y="0">mission </tspan><tspan class="cls-9" x="85.48" y="0">t</tspan><tspan x="91.33" y="0">o </tspan><tspan class="cls-15" x="105.03" y="0">C</tspan><tspan class="cls-30" x="115.43" y="0">r</tspan><tspan x="121.14" y="0">e</tspan><tspan class="cls-31" x="130.16" y="0">a</tspan><tspan class="cls-9" x="138.78" y="0">t</tspan><tspan x="144.63" y="0">e </tspan><tspan class="cls-9" x="157.46" y="0">E</tspan><tspan class="cls-7" x="166.21" y="0">v</tspan><tspan x="174.71" y="0">e</tspan><tspan class="cls-31" x="183.72" y="0">n</tspan><tspan x="193.66" y="0">t</tspan></text><line class="cls-24" x1="175.3" y1="544.53" x2="175.3" y2="690.53"/><line class="cls-24" x1="174.3" y1="373.5" x2="174.3" y2="484.5"/><line class="cls-23" x1="187.3" y1="581.53" x2="174.95" y2="581.53"/><line class="cls-23" x1="187.3" y1="410.5" x2="174.94" y2="410.5"/><line class="cls-23" x1="187.3" y1="617.53" x2="174.95" y2="617.53"/><line class="cls-23" x1="187.3" y1="446.5" x2="174.94" y2="446.5"/><line class="cls-23" x1="187.3" y1="689.5" x2="175.3" y2="689.5"/><text class="cls-2" transform="translate(196.07 586.25)"><tspan class="cls-3">M</tspan><tspan class="cls-8" x="14.58" y="0">anage noti</tspan><tspan class="cls-9" x="94.86" y="0">c</tspan><tspan x="102.81" y="0">es</tspan></text><text class="cls-2" transform="translate(194.29 417)">D<tspan class="cls-20" x="11.99" y="0">a</tspan><tspan x="20.54" y="0">y </tspan></text><text class="cls-2" transform="translate(196.29 623.28)"><tspan class="cls-3">M</tspan><tspan class="cls-8" x="14.58" y="0">anage f</tspan><tspan class="cls-26" x="70.07" y="0">a</tspan><tspan class="cls-5" x="78.6" y="0">v</tspan><tspan x="87.1" y="0">o</tspan><tspan class="cls-18" x="96.98" y="0">r</tspan><tspan x="102.92" y="0">i</tspan><tspan class="cls-25" x="107.13" y="0">t</tspan><tspan x="112.98" y="0">es</tspan></text><text class="cls-2" transform="translate(193.28 451.99)"><tspan class="cls-32">W</tspan><tspan x="14.65" y="0">eek</tspan></text><text class="cls-2" transform="translate(195.3 660.23)"><tspan class="cls-30">C</tspan><tspan x="10.26" y="0">olor scheme</tspan></text><text class="cls-2" transform="translate(194.27 488.98)"><tspan class="cls-3">M</tspan><tspan x="14.58" y="0">o</tspan><tspan class="cls-10" x="24.46" y="0">n</tspan><tspan x="34.38" y="0">th</tspan></text><line class="cls-23" x1="399" y1="396.4" x2="387" y2="396.4"/><line class="cls-23" x1="399" y1="433.5" x2="387" y2="433.5"/><line class="cls-23" x1="399.3" y1="470.5" x2="387.3" y2="470.5"/><text class="cls-2" transform="translate(196.3 694.5)">D<tspan class="cls-17" x="11.99" y="0">a</tspan><tspan class="cls-25" x="20.61" y="0">t</tspan><tspan x="26.46" y="0">e</tspan><tspan class="cls-33" x="35.48" y="0"> </tspan><tspan class="cls-13" x="38.57" y="0">T</tspan><tspan x="47.3" y="0">ime</tspan></text><line class="cls-23" x1="187.3" y1="654.53" x2="175.3" y2="654.53"/><line class="cls-23" x1="187.3" y1="483.5" x2="175.3" y2="483.5"/><line class="cls-23" x1="126.3" y1="528.5" x2="114.3" y2="528.5"/></svg>